<?xml version="1.0" standalone="no"?>
<!DOCTYPE svg PUBLIC "-//W3C//DTD SVG 20010904//EN"
 "http://www.w3.org/TR/2001/REC-SVG-20010904/DTD/svg10.dtd">
<svg version="1.0" xmlns="http://www.w3.org/2000/svg"
 width="584.000000pt" height="584.000000pt" viewBox="0 0 584.000000 584.000000"
 preserveAspectRatio="xMidYMid meet">

<g transform="translate(0.000000,584.000000) scale(0.100000,-0.100000)"
fill="#000000" stroke="none">
<path d="M1965 4997 l-35 -35 0 -705 c0 -695 0 -705 21 -730 11 -15 37 -31 57
-37 25 -8 256 -10 731 -8 l693 3 30 35 c30 35 30 36 24 125 -22 352 -169 668
-436 936 -206 207 -429 330 -733 405 -78 19 -181 37 -229 41 l-87 6 -36 -36z
m290 -197 c239 -53 432 -151 606 -307 176 -158 300 -342 375 -557 37 -106 67
-233 58 -247 -6 -10 -1133 -12 -1158 -3 -14 6 -16 65 -16 570 l0 564 23 0 c12
0 63 -9 112 -20z"/>
<path d="M4925 4961 c-37 -16 -58 -49 -58 -93 0 -34 6 -47 32 -70 l31 -28 195
0 c135 0 195 -3 195 -11 0 -6 -217 -229 -482 -495 -266 -267 -762 -766 -1103
-1109 -437 -440 -628 -626 -648 -631 l-29 -7 15 30 c25 48 97 262 117 348 23
101 36 280 21 317 -5 15 -22 35 -37 44 -24 16 -78 18 -722 17 -384 -1 -707 1
-719 4 l-23 5 0 725 c0 804 3 771 -65 793 -59 20 -262 -4 -405 -46 -145 -44
-166 -52 -290 -113 -330 -163 -580 -412 -745 -741 -62 -124 -122 -315 -141
-447 -21 -150 -15 -474 11 -603 20 -99 79 -276 125 -373 183 -387 526 -688
935 -820 174 -56 274 -71 480 -71 157 0 196 4 306 27 280 59 455 142 834 393
271 180 298 205 1551 1456 906 905 1193 1186 1198 1173 3 -9 6 -102 6 -206 0
-188 0 -190 25 -214 33 -34 93 -34 132 -1 l28 24 3 335 3 335 -25 29 -24 28
-354 2 c-194 1 -362 -2 -373 -6z m-3407 -1045 l2 -689 -167 -170 c-93 -93
-293 -296 -446 -451 -153 -154 -287 -291 -297 -304 -32 -39 -58 -25 -122 63
-104 145 -191 345 -233 535 -23 103 -31 376 -15 493 40 292 171 563 379 780
220 229 472 364 786 421 44 8 87 14 95 13 13 -2 15 -88 18 -691z m1497 -856
c8 -24 -8 -132 -36 -240 -22 -89 -74 -219 -124 -309 -52 -95 -177 -265 -198
-269 -12 -3 -141 119 -409 385 -215 213 -402 398 -415 410 -13 12 -23 27 -23
33 0 7 189 10 599 10 595 0 600 0 606 -20z m-517 -966 c4 -16 -134 -111 -243
-168 -187 -97 -350 -142 -553 -153 -320 -17 -638 79 -891 267 -42 31 -83 65
-93 76 -15 18 2 38 420 462 l436 443 460 -458 c253 -252 462 -463 464 -469z"/>
<path d="M4965 3755 l-25 -24 0 -1585 0 -1585 26 -20 c26 -20 38 -21 350 -21
l323 0 28 24 28 24 0 1587 0 1587 -24 19 c-22 18 -43 19 -353 19 l-329 0 -24
-25z"/>
<path d="M3982 2840 c-53 -22 -52 8 -52 -1159 0 -723 3 -1089 10 -1107 21 -53
20 -53 373 -54 l329 0 29 29 29 29 0 1105 c0 608 -3 1113 -6 1122 -16 41 -48
45 -376 44 -172 0 -323 -4 -336 -9z"/>
<path d="M2956 2009 l-26 -31 0 -704 0 -704 22 -22 c23 -23 26 -23 350 -26
219 -2 335 1 348 8 51 27 51 16 48 766 l-3 696 -28 24 -28 24 -329 0 -328 0
-26 -31z"/>
<path d="M1961 1424 l-31 -26 0 -414 0 -415 25 -24 24 -25 329 0 329 0 26 24
c14 13 28 39 32 57 3 19 5 207 3 417 l-3 384 -30 24 -30 24 -322 0 -321 0 -31
-26z"/>
</g>
</svg>
